<?xml version="1.0" standalone="no"?>
<!DOCTYPE svg PUBLIC "-//W3C//DTD SVG 20010904//EN"
 "http://www.w3.org/TR/2001/REC-SVG-20010904/DTD/svg10.dtd">
<svg version="1.0" xmlns="http://www.w3.org/2000/svg"
 width="600.000000pt" height="600.000000pt" viewBox="0 0 600.000000 600.000000"
 preserveAspectRatio="xMidYMid meet">
<metadata>
Created by potrace 1.14, written by Peter Selinger 2001-2017
</metadata>
<g transform="translate(0.000000,600.000000) scale(0.100000,-0.100000)"
fill="#000000" stroke="none">
<path d="M3658 5645 c-2 -2 -26 -7 -53 -10 -61 -7 -181 -32 -255 -53 -30 -9
-57 -17 -60 -17 -3 -1 -12 -4 -20 -8 -8 -3 -35 -13 -60 -21 -214 -72 -458
-224 -615 -381 -59 -60 -128 -137 -148 -165 -139 -198 -209 -341 -241 -496
-13 -59 -14 -184 -2 -234 3 -13 8 -42 11 -65 4 -22 11 -58 17 -80 5 -22 10
-41 9 -43 -1 -1 10 -24 23 -51 30 -59 109 -147 168 -187 24 -16 45 -31 48 -34
13 -14 180 -91 223 -102 26 -7 47 -17 47 -23 -2 -22 -296 -600 -306 -600 -6 0
-41 41 -79 90 -85 111 -229 255 -255 255 -5 0 -10 3 -12 8 -12 28 -233 137
-353 175 -280 88 -577 94 -835 19 -30 -9 -57 -17 -60 -17 -29 -8 -142 -58
-190 -83 -25 -14 -55 -30 -67 -36 -13 -6 -23 -14 -23 -18 0 -5 -5 -8 -10 -8
-6 0 -16 -4 -23 -10 -206 -166 -304 -282 -395 -465 -36 -73 -84 -185 -88 -210
-1 -5 -9 -37 -18 -70 -40 -152 -42 -345 -7 -478 24 -86 91 -257 129 -327 52
-95 169 -231 272 -315 158 -128 347 -221 535 -261 85 -19 230 -23 332 -10 57
7 138 22 138 26 0 1 9 3 20 4 26 4 135 38 205 65 92 36 180 84 225 124 24 20
50 37 59 37 11 0 28 -26 50 -73 32 -71 115 -207 142 -235 8 -7 27 -30 41 -50
45 -60 302 -313 388 -383 44 -35 85 -67 90 -72 37 -31 204 -141 261 -172 151
-82 171 -92 229 -114 33 -12 67 -26 76 -31 21 -11 195 -58 243 -66 21 -3 48
-8 60 -11 40 -10 331 -12 386 -3 30 6 69 12 85 15 274 45 571 179 800 363 160
128 295 275 392 424 46 72 142 258 148 288 2 8 13 42 25 75 21 60 44 144 55
200 14 73 25 144 31 195 3 30 8 69 10 85 3 17 7 94 11 172 5 130 2 181 -24
323 -4 23 -81 252 -97 292 -6 12 7 25 51 54 193 127 425 450 512 714 19 57 27
87 47 175 3 11 7 40 10 65 3 25 8 52 10 60 8 25 18 161 18 250 0 163 -22 266
-91 430 -84 201 -225 382 -418 538 -38 31 -72 60 -75 63 -13 16 -302 199 -314
199 -2 0 -50 22 -107 49 -230 109 -505 196 -729 231 -41 6 -86 14 -100 17 -29
6 -496 14 -502 8z m779 -1186 c218 -93 376 -215 427 -332 l23 -52 -18 -54
c-38 -110 -122 -218 -207 -268 -95 -56 -267 -75 -382 -42 -25 7 -51 13 -58 15
-7 1 -41 16 -77 32 l-64 31 20 38 c11 21 45 92 75 158 31 66 88 188 127 270
38 83 71 166 72 185 2 19 3 36 4 38 2 4 10 2 58 -19z m-730 -1714 c73 -18 209
-75 276 -116 26 -16 50 -29 53 -29 7 0 142 -102 170 -128 81 -76 136 -175 140
-249 8 -177 -199 -514 -387 -629 -31 -19 -63 -34 -71 -34 -8 0 -18 -3 -22 -7
-13 -13 -52 -18 -161 -17 -84 0 -129 5 -190 23 -94 27 -247 99 -290 137 -16
14 -37 31 -45 38 -31 24 -41 44 -31 63 5 10 29 61 54 113 24 52 67 144 96 203
28 60 51 110 51 112 0 2 31 68 68 147 38 78 95 201 128 271 51 112 61 127 79
122 11 -3 48 -12 82 -20z"/>
</g>
</svg>
